<svg width="275" height="800" viewBox="0 0 275 800" fill="none" xmlns="http://www.w3.org/2000/svg">
<g clip-path="url(#clip0_215_32)">
<rect width="275" height="800" fill="#C6F8EA"/>
<path d="M341.573 871.015C361.058 868.208 373.777 859.563 381.405 852.06L381.959 851.508C403.019 830.249 403.317 800.867 403.287 797.588L404 661.063L404 554.985L223.276 554C218.635 553.993 214 554.322 209.408 554.985C189.853 557.801 177.094 566.486 169.397 574.137L169.021 574.521C147.971 595.76 147.683 625.123 147.723 628.402L147 764.936L147 871.015L327.724 871.999C332.359 872.016 336.988 871.687 341.573 871.015Z" stroke="#3A4CFA" stroke-width="2" stroke-miterlimit="10"/>
<path d="M-14.2257 359.224C-30.3795 356.893 -40.9165 349.713 -47.2655 343.486L-47.7299 343.023C-65.1785 325.363 -65.4286 300.969 -65.4018 298.247L-66 184.851L-66 96.7753L83.7599 96.0013C87.6164 95.9789 91.4696 96.2376 95.2882 96.7753C111.496 99.1151 122.077 106.33 128.444 112.682L128.757 113.003C146.196 130.645 146.437 155.03 146.402 157.752L147 271.148L147 359.224L-2.75984 359.998C-6.59585 360.027 -10.4287 359.769 -14.2257 359.224Z" fill="#FFFDB3"/>
</g>
<defs>
<clipPath id="clip0_215_32">
<rect width="275" height="800" fill="white"/>
</clipPath>
</defs>
</svg>
