<svg width="102" height="21" viewBox="0 0 102 21" fill="none" xmlns="http://www.w3.org/2000/svg">
<path d="M35.24 1.00386H39.3016L46.2357 19.9625H43.7451L42.0661 15.4386H32.4038L30.6703 19.9625H28.1797L35.24 1.00386ZM41.3329 13.2727L37.2714 1.89752L33.1279 13.2727H41.3329Z" fill="black"/>
<path d="M48.8061 2.87307C48.5071 2.57025 48.3394 2.16176 48.3394 1.73612C48.3394 1.31048 48.5071 0.901986 48.8061 0.599167C48.9554 0.444854 49.1341 0.322124 49.3317 0.238319C49.5294 0.154514 49.7418 0.111328 49.9565 0.111328C50.1712 0.111328 50.3836 0.154514 50.5812 0.238319C50.7789 0.322124 50.9576 0.444854 51.1069 0.599167C51.2608 0.745813 51.3834 0.922186 51.4671 1.11762C51.5508 1.31306 51.594 1.52349 51.594 1.73612C51.594 1.94875 51.5508 2.15915 51.4671 2.35458C51.3834 2.55002 51.2608 2.72642 51.1069 2.87307C50.7989 3.17282 50.3862 3.34053 49.9565 3.34053C49.5268 3.34053 49.114 3.17282 48.8061 2.87307ZM48.7788 5.60855H51.0807V19.9625H48.7788V5.60855Z" fill="black"/>
<path d="M56.0342 18.0115C54.6269 16.5494 53.9221 14.8167 53.9221 12.7815C53.9221 10.7236 54.6269 8.96252 56.008 7.52769C57.4153 6.09172 59.1216 5.36065 61.1234 5.36065C63.3707 5.36065 65.3202 6.47145 66.4308 8.23145V1.00047H68.7327V19.9591H66.432V17.3316C65.8606 18.2185 65.0745 18.9466 64.1467 19.4485C63.2189 19.9504 62.1793 20.2097 61.1245 20.2024C59.1489 20.2058 57.4426 19.4748 56.0342 18.0115ZM65.0247 16.5221C66.053 15.4662 66.5676 14.2205 66.5684 12.7849C66.5799 12.0896 66.4489 11.3993 66.1834 10.7565C65.9179 10.1138 65.5235 9.53222 65.0247 9.04777C64.0232 7.99155 62.7773 7.47653 61.3155 7.47653C60.6282 7.46515 59.946 7.59646 59.3121 7.86222C58.6781 8.12798 58.1062 8.52238 57.6324 9.02049C57.1399 9.51398 56.7518 10.1016 56.4913 10.7484C56.2307 11.3952 56.1031 12.0878 56.116 12.7849C56.1032 13.4797 56.2282 14.1701 56.4838 14.8163C56.7394 15.4624 57.1205 16.0515 57.6052 16.5494C58.6066 17.5783 59.8525 18.0934 61.3155 18.0934C62.0089 18.1034 62.6969 17.9688 63.3355 17.6983C63.9741 17.4278 64.5493 17.0272 65.0247 16.5221Z" fill="black"/>
<path d="M73.499 18.0115C72.0644 16.5494 71.3596 14.7894 71.3596 12.7577C71.3596 10.6998 72.0644 8.96596 73.499 7.52771C74.1776 6.83011 74.9913 6.27817 75.8903 5.90559C76.7894 5.53301 77.7549 5.34759 78.728 5.36068C80.493 5.34478 82.1976 6.0036 83.4932 7.20253C84.8744 8.42134 85.686 9.91075 85.9304 11.7253C86.0603 12.3407 86.0696 12.9755 85.9577 13.5945H73.6615C73.7972 14.9217 74.3386 16.0048 75.2859 16.8439C76.234 17.6841 77.398 18.0945 78.7257 18.0945C80.5661 18.0945 82.2996 17.2009 83.3011 15.7922L85.3859 16.28C84.8175 17.4442 83.8967 18.3924 82.6509 19.1223C81.4594 19.8167 80.1046 20.1813 78.7257 20.1786C76.6671 20.1786 74.9347 19.4475 73.499 18.0115ZM83.6808 11.7833C83.533 10.5845 82.9441 9.48365 82.0291 8.69536C81.1243 7.85784 79.9311 7.40207 78.6984 7.42312C77.442 7.40222 76.224 7.8566 75.2882 8.69536C74.3709 9.4783 73.7894 10.5838 73.6638 11.7833H83.6808Z" fill="black"/>
<path d="M88.2563 5.60849H90.5582V8.07228C91.5324 6.48055 93.2659 5.36406 95.5132 5.36406C97.1649 5.36406 98.5995 5.90639 99.7908 6.9899C100.982 8.04613 101.578 9.48095 101.578 11.2682V19.9625H99.277V11.972C99.277 10.5372 98.87 9.45367 98.0584 8.66804C97.2729 7.88355 96.2714 7.50381 95.1028 7.50381C93.7763 7.50381 92.6929 7.99154 91.8268 8.96591C90.9878 9.91412 90.5547 11.133 90.5547 12.6224V19.9625H88.2528L88.2563 5.60849Z" fill="black"/>
<path d="M11.0908 18.6483V16.5762C11.0908 12.1418 7.51069 8.54704 3.09441 8.54704H1.80469V5.69808C1.80469 2.55112 4.34541 0 7.47955 0H19.3452V12.9502C19.3452 16.0971 16.8044 18.6483 13.6703 18.6483H11.0908Z" fill="#3A4CFA"/>
<path d="M8.77344 20.2012H5.67806C2.54391 20.2012 0.00318909 17.6501 0.00318909 14.5031V10.877H3.09857C6.23271 10.877 8.77344 13.4282 8.77344 16.5751V20.2012Z" fill="#3B4CF9" fill-opacity="0.6"/>
</svg>
