<svg width="275" height="800" viewBox="0 0 275 800" fill="none" xmlns="http://www.w3.org/2000/svg">
<g clip-path="url(#clip0_56_31)">
<rect width="275" height="800" fill="#FFFDB3"/>
<path d="M354.503 829.266C373.69 826.616 386.206 818.453 393.747 811.373L394.299 810.847C415.024 790.769 415.321 763.035 415.289 759.94L416 631.018L416 530.882L238.116 530.002C233.535 529.977 228.959 530.271 224.423 530.882C205.172 533.542 192.603 541.745 185.041 548.967L184.669 549.331C163.954 569.389 163.668 597.113 163.711 600.208L163 729.13L163 829.266L340.884 830.146C345.44 830.179 349.993 829.885 354.503 829.266Z" fill="#3A4CFA"/>
<path d="M-30.2152 31.2171L-30.2152 31.2052L-30.2153 31.1934C-30.2463 28.1818 -29.9377 1.00619 -9.6852 -18.6171L-9.14205 -19.1351C-1.79405 -26.0325 10.4424 -34.0301 29.2761 -36.6315C33.7146 -37.241 38.1951 -37.5305 42.6794 -37.4975L42.683 -37.4974L219.074 -36.6248L219.074 62.0099L219.074 62.0182L218.364 190.932L218.364 190.946L218.364 190.961C218.405 193.967 218.107 221.136 197.861 240.74L197.855 240.746L197.498 241.097C197.495 241.099 197.493 241.101 197.491 241.103C190.126 248.133 177.842 256.169 158.947 258.78C154.482 259.382 149.976 259.672 145.466 259.646H145.465L-30.9258 258.774L-30.9258 160.135V160.131L-30.2152 31.2171Z" stroke="#121666" stroke-width="3"/>
</g>
<defs>
<clipPath id="clip0_56_31">
<rect width="275" height="800" fill="white"/>
</clipPath>
</defs>
</svg>
