<svg width="556" height="265" viewBox="0 0 556 265" fill="none" xmlns="http://www.w3.org/2000/svg">
<path d="M502.159 32.159C502.636 35.3812 504.104 37.483 505.378 38.7494L505.473 38.842C509.085 42.3225 514.075 42.3723 514.631 42.367L537.826 42.4863L555.841 42.4863L556 12.614C556.004 11.8448 555.951 11.0762 555.841 10.3145C555.363 7.08162 553.887 4.97094 552.588 3.70095L552.522 3.63859C548.914 0.159929 543.926 0.111835 543.369 0.11896L520.174 -0.00036475L502.159 -0.000363972L502 29.8719C501.994 30.6371 502.047 31.4016 502.159 32.159Z" fill="#FFFDB3"/>
<path d="M22.4509 116.576C24.6503 116.261 26.0849 115.29 26.9493 114.449L27.0125 114.386C29.3882 111.999 29.4222 108.702 29.4186 108.335L29.5 93.0088L29.5 81.1052L9.11016 81.0006C8.58509 80.9975 8.06048 81.0325 7.54057 81.1052C5.33393 81.4214 3.89324 82.3965 3.02639 83.255L2.98383 83.2983C0.609412 85.6827 0.576585 88.9784 0.581448 89.3464L0.500002 104.672L0.500003 116.576L20.8898 116.68C21.4121 116.684 21.934 116.649 22.4509 116.576Z" fill="#C6F8EA"/>
<path d="M353.446 167.288C347.379 168.151 343.421 170.811 341.036 173.119L340.862 173.29C334.309 179.834 334.215 188.873 334.225 189.881L334 231.897V264.532L390.248 264.819C391.696 264.827 393.143 264.731 394.578 264.532C400.665 263.665 404.639 260.991 407.031 258.638L407.148 258.519C413.698 251.982 413.789 242.947 413.775 241.938L414 199.922V167.288L357.752 167.001C356.311 166.99 354.872 167.086 353.446 167.288Z" fill="#EEFAFF"/>
</svg>
