<svg width="1078" height="411" viewBox="0 0 1078 411" fill="none" xmlns="http://www.w3.org/2000/svg">
<g clip-path="url(#clip0_222_38)">
<path d="M1191.08 439.837C1188.47 457.664 1180.42 469.302 1173.44 476.281L1172.93 476.788C1153.14 496.057 1125.79 496.329 1122.74 496.302L995.656 496.954L896.917 496.954L896 331.602C895.994 327.356 896.3 323.116 896.917 318.914C899.538 301.023 907.622 289.349 914.743 282.307L915.101 281.963C934.871 262.703 962.202 262.44 965.254 262.476L1092.34 261.815L1191.08 261.815L1192 427.166C1192.02 431.407 1191.71 435.642 1191.08 439.837V439.837Z" stroke="#FFFDB3" stroke-width="2" stroke-miterlimit="10"/>
<path fill-rule="evenodd" clip-rule="evenodd" d="M1107.09 212.349C1107.01 212.349 1106.93 212.35 1106.84 212.35L1020 212.35L1020 119.087C1020 96.4237 1038.59 78.0515 1061.53 78.0515L1062.91 78.0515C1062.99 78.051 1063.07 78.0508 1063.15 78.0508H1150V171.313C1150 193.977 1131.4 212.349 1108.46 212.349H1107.09Z" fill="#C6F8EA"/>
<path d="M209.083 105.899C206.471 123.727 198.423 135.365 191.439 142.343L190.926 142.851C171.138 162.119 143.788 162.391 140.736 162.364L13.6564 163.017L-85.0833 163.017L-85.9999 -2.33519C-86.0064 -6.58115 -85.7001 -10.8217 -85.0833 -15.0237C-82.462 -32.9147 -74.3781 -44.5885 -67.2565 -51.6307L-66.8991 -51.975C-47.1291 -71.2346 -19.7977 -71.4975 -16.7456 -71.4612L110.343 -72.1228L209.083 -72.1228L209.999 93.2288C210.015 97.469 209.709 101.704 209.083 105.899V105.899Z" stroke="#C6F8EA" stroke-width="2" stroke-miterlimit="10"/>
</g>
<defs>
<clipPath id="clip0_222_38">
<rect width="1078" height="411" fill="white"/>
</clipPath>
</defs>
</svg>
