<svg width="375" height="346" viewBox="0 0 375 346" fill="none" xmlns="http://www.w3.org/2000/svg">
<path d="M488.083 464.837C485.471 482.664 477.423 494.302 470.439 501.281L469.926 501.788C450.138 521.057 422.788 521.329 419.736 521.302L292.656 521.954L193.917 521.954L193 356.602C192.994 352.356 193.3 348.116 193.917 343.914C196.538 326.023 204.622 314.349 211.743 307.307L212.101 306.963C231.871 287.703 259.202 287.44 262.254 287.476L389.343 286.815L488.083 286.815L488.999 452.166C489.015 456.407 488.709 460.642 488.083 464.837V464.837Z" stroke="#FFFDB3" stroke-width="2" stroke-miterlimit="10"/>
<path fill-rule="evenodd" clip-rule="evenodd" d="M450.15 -7.17438C450.151 -7.01545 450.152 -6.85631 450.152 -6.69696L450.152 80.1484L356.89 80.1484C334.226 80.1484 315.854 61.5527 315.854 38.6137L315.854 37.4711C315.852 37.3128 315.852 37.1544 315.852 36.9957L315.852 -49.8497L409.114 -49.8497C431.777 -49.8497 450.15 -31.2539 450.15 -8.3149L450.15 -7.17438Z" fill="#C6F8EA"/>
<path d="M209.083 -4.10068C206.471 13.7269 198.423 25.3647 191.439 32.3435L190.926 32.8506C171.138 52.1193 143.788 52.3915 140.736 52.3643L13.6564 53.0166L-85.0833 53.0166L-85.9999 -112.335C-86.0064 -116.581 -85.7001 -120.822 -85.0833 -125.024C-82.462 -142.915 -74.3781 -154.588 -67.2565 -161.631L-66.8991 -161.975C-47.1291 -181.235 -19.7977 -181.497 -16.7456 -181.461L110.343 -182.123L209.083 -182.123L209.999 -16.7712C210.015 -12.531 209.709 -8.29557 209.083 -4.10068V-4.10068Z" stroke="#C6F8EA" stroke-width="2" stroke-miterlimit="10"/>
</svg>
