<svg width="208" height="270" viewBox="0 0 208 270" fill="none" xmlns="http://www.w3.org/2000/svg">
<g clip-path="url(#clip0_257_1819)">
<path d="M192.26 -31.112C211.523 -28.4456 224.088 -20.2327 231.659 -13.1087L232.213 -12.5795C253.02 7.62209 253.319 35.5278 253.287 38.642L254 168.36V269.113L75.4131 269.998C70.8142 270.024 66.2194 269.728 61.6657 269.113C42.3386 266.437 29.7201 258.183 22.1277 250.916L21.7549 250.55C0.958293 230.369 0.670773 202.473 0.713367 199.359L-3.20064e-06 69.6415V-31.112L178.587 -31.9974C183.161 -32.0312 187.732 -31.7352 192.26 -31.112Z" fill="#EEFAFF"/>
</g>
<defs>
<clipPath id="clip0_257_1819">
<path d="M0 0H188C199.046 0 208 8.95431 208 20V270H0V0Z" fill="white"/>
</clipPath>
</defs>
</svg>
