<svg width="440" height="199" viewBox="0 0 440 199" fill="none" xmlns="http://www.w3.org/2000/svg">
<path d="M81.4458 101.607C75.3786 102.466 71.421 105.111 69.0364 107.405L68.862 107.576C62.3085 114.082 62.2146 123.07 62.2247 124.073L62 165.852L62 198.302L118.248 198.587C119.696 198.595 121.143 198.5 122.578 198.302C128.665 197.44 132.639 194.782 135.031 192.441L135.148 192.323C141.698 185.823 141.789 176.839 141.775 175.836L142 134.057V101.607L85.7522 101.322C84.3114 101.311 82.8718 101.406 81.4458 101.607Z" fill="#FFFDB3"/>
<path d="M379.951 35.3747C382.15 35.0614 383.585 34.0966 384.449 33.2597L384.513 33.1975C386.888 30.8242 386.922 27.5458 386.919 27.18L387 11.9407L387 0.1042L366.61 0.000184183C366.085 -0.00283097 365.56 0.031934 365.041 0.104202C362.834 0.418647 361.393 1.38829 360.526 2.24195L360.484 2.28499C358.109 4.65589 358.077 7.93306 358.081 8.29892L358 23.5381L358 35.3747L378.39 35.4787C378.912 35.4827 379.434 35.4479 379.951 35.3747Z" fill="#C6F8EA"/>
</svg>
