<svg width="375" height="466" viewBox="0 0 375 466" fill="none" xmlns="http://www.w3.org/2000/svg">
<g clip-path="url(#clip0_306_10)">
<path d="M611.889 148.159C619.617 164.436 619.388 178.583 617.456 188.265L617.311 188.972C611.556 215.986 588.962 231.401 586.409 233.073L481.09 304.19L398.977 359.026L306.386 222.026C304.022 218.499 301.922 214.802 300.101 210.965C292.345 194.631 292.585 180.434 294.596 170.622L294.702 170.137C300.447 143.141 323.031 127.744 325.589 126.079L430.91 54.9496L513.023 0.113885L605.614 137.113C607.982 140.631 610.08 144.323 611.889 148.159V148.159Z" stroke="#C6F8EA" stroke-miterlimit="10"/>
<path fill-rule="evenodd" clip-rule="evenodd" d="M111.298 453.676C111.3 453.835 111.301 453.994 111.301 454.153L111.301 540.999L18.0382 540.999C-4.62513 540.999 -22.9974 522.403 -22.9974 499.464L-22.9974 498.321C-22.9991 498.163 -23 498.004 -23 497.845L-23 411L70.2626 411C92.9259 411 111.298 429.596 111.298 452.535L111.298 453.676Z" fill="#EEFAFF"/>
</g>
<defs>
<clipPath id="clip0_306_10">
<rect width="375" height="466" fill="white"/>
</clipPath>
</defs>
</svg>
