<svg width="275" height="800" viewBox="0 0 275 800" fill="none" xmlns="http://www.w3.org/2000/svg">
<g clip-path="url(#clip0_308_744)">
<rect width="275" height="800" fill="#EEFAFF"/>
<path d="M164.774 131.224C148.621 128.893 138.083 121.713 131.734 115.486L131.27 115.023C113.822 97.3635 113.571 72.9691 113.598 70.2467L113 -43.1487L113 -131.225L262.76 -131.999C266.616 -132.021 270.47 -131.762 274.288 -131.225C290.496 -128.885 301.077 -121.67 307.444 -115.318L307.757 -114.997C325.196 -97.3555 325.437 -72.97 325.402 -70.2476L326 43.1478L326 131.224L176.24 131.998C172.404 132.027 168.571 131.769 164.774 131.224Z" fill="#FFFDB3"/>
<path d="M126.775 275.338C100.315 279.151 83.0417 290.896 72.6836 301.089L71.9308 301.838C43.3318 330.718 42.9278 370.634 42.9682 375.088L42 560.555V704.662L287.419 706C293.721 706.009 300.015 705.562 306.252 704.662C332.806 700.836 350.133 689.038 360.585 678.645L361.096 678.123C389.682 649.269 390.072 609.38 390.018 604.926L391 419.445V275.338L145.581 274.001C139.287 273.978 133.001 274.425 126.775 275.338Z" stroke="#3A4CFA" stroke-width="2" stroke-miterlimit="10"/>
</g>
<defs>
<clipPath id="clip0_308_744">
<rect width="275" height="800" fill="white"/>
</clipPath>
</defs>
</svg>
