<svg width="449" height="434" viewBox="0 0 449 434" fill="none" xmlns="http://www.w3.org/2000/svg">
<path d="M86.6371 270.889C86.8016 270.889 86.9661 270.89 87.1308 270.89L292.247 270.814L292.166 82.7588C292.146 37.0602 254.634 0.0303904 208.379 0.0502766L205.605 0.0514693C205.442 0.0506187 205.279 0.0502279 205.116 0.050298L-0.000165693 0.125571L0.0806689 188.181C0.100312 233.88 37.6129 270.91 83.8674 270.89L86.6371 270.889Z" fill="#EEFAFF"/>
<g filter="url(#filter0_d_306_341)">
<rect x="60.0015" y="233.787" width="372" height="180.213" rx="13.2267" fill="white"/>
</g>
<rect x="204.669" y="385.894" width="31.4133" height="6.61333" rx="3.30667" fill="#CCDAEF"/>
<rect x="269.15" y="385.894" width="31.4133" height="6.61333" rx="3.30667" fill="#CCDAEF"/>
<rect x="333.626" y="385.894" width="31.4133" height="6.61333" rx="3.30667" fill="#CCDAEF"/>
<rect x="194.748" y="250.32" width="51.2533" height="128.96" rx="3.30667" fill="#EEFAFF"/>
<rect x="259.228" y="280.08" width="51.2533" height="99.2" rx="3.30667" fill="#3A4CFA"/>
<rect x="323.708" y="306.533" width="51.2533" height="72.7467" rx="3.30667" fill="#121666"/>
<path d="M75.8713 258.08C76.8413 258.08 77.6413 257.75 78.2713 257.09C78.9113 256.43 79.2313 255.6 79.2313 254.6V254.17H75.8713L75.8913 255.18H78.0713C77.8013 256.27 76.9413 256.94 75.8713 256.94C75.1913 256.94 74.6313 256.71 74.1813 256.24C73.7313 255.77 73.5113 255.19 73.5113 254.5C73.5113 253.81 73.7313 253.24 74.1813 252.77C74.6313 252.3 75.2013 252.06 75.8713 252.06C76.7913 252.06 77.5413 252.56 77.9113 253.37L79.0513 253.06C78.7713 252.41 78.3513 251.9 77.7813 251.51C77.2213 251.12 76.5813 250.92 75.8713 250.92C74.8913 250.92 74.0513 251.27 73.3613 251.97C72.6713 252.67 72.3213 253.51 72.3213 254.5C72.3213 255.49 72.6613 256.33 73.3513 257.03C74.0413 257.73 74.8813 258.08 75.8713 258.08Z" fill="#3A4CFA"/>
<path d="M81.8404 251.97H82.8604L84.1804 250.58H82.8104L81.8404 251.97ZM82.6404 258.08C83.1504 258.08 83.6404 257.95 84.1104 257.7C84.5804 257.44 84.9204 257.1 85.1304 256.67L84.1104 256.4C83.7404 256.83 83.2504 257.05 82.6404 257.05C81.8404 257.05 81.1904 256.56 81.0604 255.77H85.3204C85.3804 255.48 85.3804 255.18 85.3104 254.87C85.2004 254.22 84.8904 253.69 84.3804 253.26C83.8804 252.83 83.3004 252.61 82.6404 252.61C81.8904 252.61 81.2504 252.88 80.7204 253.41C80.1904 253.94 79.9204 254.58 79.9204 255.34C79.9204 256.09 80.1804 256.74 80.7104 257.28C81.2404 257.81 81.8804 258.08 82.6404 258.08ZM81.0604 254.88C81.1904 254.19 81.8204 253.63 82.6304 253.63C83.4404 253.63 84.0604 254.17 84.1904 254.88H81.0604Z" fill="#3A4CFA"/>
<path d="M86.252 258H87.402V255.27C87.402 254.82 87.532 254.44 87.802 254.14C88.072 253.83 88.412 253.68 88.832 253.68C89.552 253.68 90.122 254.21 90.122 255.06V258H91.272V254.75C91.272 254.1 91.052 253.59 90.612 253.2C90.182 252.81 89.662 252.61 89.052 252.61C88.362 252.61 87.812 252.87 87.402 253.4V252.7H86.252V258Z" fill="#3A4CFA"/>
<path d="M93.9986 251.97H95.0186L96.3386 250.58H94.9686L93.9986 251.97ZM94.7986 258.08C95.3086 258.08 95.7986 257.95 96.2686 257.7C96.7386 257.44 97.0786 257.1 97.2886 256.67L96.2686 256.4C95.8986 256.83 95.4086 257.05 94.7986 257.05C93.9986 257.05 93.3486 256.56 93.2186 255.77H97.4786C97.5386 255.48 97.5386 255.18 97.4686 254.87C97.3586 254.22 97.0486 253.69 96.5386 253.26C96.0386 252.83 95.4586 252.61 94.7986 252.61C94.0486 252.61 93.4086 252.88 92.8786 253.41C92.3486 253.94 92.0786 254.58 92.0786 255.34C92.0786 256.09 92.3386 256.74 92.8686 257.28C93.3986 257.81 94.0386 258.08 94.7986 258.08ZM93.2186 254.88C93.3486 254.19 93.9786 253.63 94.7886 253.63C95.5986 253.63 96.2186 254.17 96.3486 254.88H93.2186Z" fill="#3A4CFA"/>
<path d="M98.4102 258H99.5602V255.31C99.5602 254.75 99.7602 254.33 100.17 254.06C100.58 253.79 101.06 253.73 101.6 253.9V252.68C100.6 252.52 99.8902 252.9 99.5602 253.57V252.7H98.4102V258Z" fill="#3A4CFA"/>
<path d="M104.246 258.08C105.126 258.08 105.756 257.63 106.066 257.2V258H107.156V254.33C107.156 253.82 106.916 253.41 106.446 253.09C105.976 252.77 105.416 252.61 104.756 252.61C104.106 252.61 103.546 252.76 103.096 253.07C102.646 253.38 102.416 253.79 102.406 254.32L103.506 254.3C103.626 253.82 104.046 253.58 104.776 253.58C105.536 253.58 106.066 253.88 106.066 254.47V254.79H104.456C103.046 254.79 102.256 255.37 102.266 256.45C102.266 257.72 103.396 258.08 104.246 258.08ZM104.336 257.13C103.866 257.13 103.456 256.93 103.416 256.48C103.366 255.99 103.786 255.62 104.656 255.62H106.066C106.066 256.03 105.886 256.38 105.526 256.68C105.176 256.98 104.776 257.13 104.336 257.13Z" fill="#3A4CFA"/>
<path d="M108.206 258H109.356V251H108.206V258Z" fill="#3A4CFA"/>
<path d="M115.746 258.08C116.316 258.08 116.816 257.92 117.266 257.6C117.716 257.28 118.046 256.87 118.246 256.36L117.186 256.08C116.936 256.65 116.396 257.04 115.746 257.04C115.286 257.04 114.896 256.87 114.576 256.54C114.266 256.21 114.106 255.81 114.106 255.34C114.106 254.88 114.266 254.48 114.576 254.15C114.896 253.81 115.286 253.64 115.746 253.64C116.386 253.64 116.936 254.04 117.186 254.61L118.246 254.33C118.046 253.82 117.716 253.4 117.266 253.09C116.816 252.77 116.306 252.61 115.746 252.61C114.996 252.61 114.356 252.88 113.826 253.41C113.296 253.94 113.026 254.58 113.026 255.34C113.026 256.09 113.286 256.73 113.816 257.27C114.346 257.81 114.986 258.08 115.746 258.08Z" fill="#3A4CFA"/>
<path d="M121.053 258.08C121.933 258.08 122.563 257.63 122.873 257.2V258H123.963V254.33C123.963 253.82 123.723 253.41 123.253 253.09C122.783 252.77 122.223 252.61 121.563 252.61C120.913 252.61 120.353 252.76 119.903 253.07C119.453 253.38 119.223 253.79 119.213 254.32L120.313 254.3C120.433 253.82 120.853 253.58 121.583 253.58C122.343 253.58 122.873 253.88 122.873 254.47V254.79H121.263C119.853 254.79 119.063 255.37 119.073 256.45C119.073 257.72 120.203 258.08 121.053 258.08ZM121.143 257.13C120.673 257.13 120.263 256.93 120.223 256.48C120.173 255.99 120.593 255.62 121.463 255.62H122.873C122.873 256.03 122.693 256.38 122.333 256.68C121.983 256.98 121.583 257.13 121.143 257.13Z" fill="#3A4CFA"/>
<path d="M127.882 258.09C128.642 258.09 129.272 257.82 129.772 257.29C130.272 256.75 130.522 256.1 130.522 255.35C130.522 254.58 130.262 253.93 129.752 253.4C129.242 252.87 128.622 252.6 127.882 252.61C127.172 252.62 126.602 252.89 126.182 253.42V251H125.032V258H126.182V257.29C126.612 257.82 127.182 258.09 127.882 258.09ZM129.452 255.35C129.452 255.81 129.292 256.21 128.962 256.54C128.632 256.87 128.242 257.04 127.782 257.04C127.322 257.04 126.922 256.87 126.592 256.54C126.262 256.21 126.102 255.81 126.102 255.35C126.102 254.89 126.262 254.49 126.592 254.16C126.922 253.82 127.322 253.65 127.782 253.65C128.242 253.65 128.632 253.82 128.962 254.15C129.292 254.48 129.452 254.88 129.452 255.35Z" fill="#3A4CFA"/>
<path d="M132.569 251.83C132.859 251.54 132.859 251.06 132.569 250.78C132.279 250.49 131.799 250.49 131.509 250.78C131.229 251.06 131.229 251.54 131.509 251.83C131.799 252.11 132.279 252.11 132.569 251.83ZM131.449 258H132.599V252.7H131.449V258Z" fill="#3A4CFA"/>
<path d="M133.732 258H134.882V255.27C134.882 254.82 135.012 254.44 135.282 254.14C135.552 253.83 135.892 253.68 136.312 253.68C137.032 253.68 137.602 254.21 137.602 255.06V258H138.752V254.75C138.752 254.1 138.532 253.59 138.092 253.2C137.662 252.81 137.142 252.61 136.532 252.61C135.842 252.61 135.292 252.87 134.882 253.4V252.7H133.732V258Z" fill="#3A4CFA"/>
<path d="M142.279 258.08C142.789 258.08 143.279 257.95 143.749 257.7C144.219 257.44 144.559 257.1 144.769 256.67L143.749 256.4C143.379 256.83 142.889 257.05 142.279 257.05C141.479 257.05 140.829 256.56 140.699 255.77H144.959C145.019 255.48 145.019 255.18 144.949 254.87C144.839 254.22 144.529 253.69 144.019 253.26C143.519 252.83 142.939 252.61 142.279 252.61C141.529 252.61 140.889 252.88 140.359 253.41C139.829 253.94 139.559 254.58 139.559 255.34C139.559 256.09 139.819 256.74 140.349 257.28C140.879 257.81 141.519 258.08 142.279 258.08ZM140.699 254.88C140.829 254.19 141.459 253.63 142.269 253.63C143.079 253.63 143.699 254.17 143.829 254.88H140.699Z" fill="#3A4CFA"/>
<path d="M149.255 257.96V256.85C148.125 257.2 147.585 256.93 147.585 256.28L147.595 253.69H149.215V252.7H147.595V251.39H146.465L146.455 252.7H145.455V253.69H146.455L146.445 256.29C146.445 257.04 146.705 257.57 147.235 257.86C147.765 258.15 148.435 258.19 149.255 257.96Z" fill="#3A4CFA"/>
<g filter="url(#filter1_d_306_341)">
<rect x="251.787" y="42" width="180.213" height="180.213" rx="13.2267" fill="white"/>
</g>
<circle cx="342.307" cy="144.92" r="42.5733" stroke="#EEFAFF" stroke-width="19.84"/>
<mask id="path-12-inside-1_306_341" fill="white">
<path d="M394.801 144.92C394.801 155.712 391.475 166.241 385.276 175.074C379.076 183.908 370.306 190.616 360.157 194.285L353.442 175.714C359.772 173.425 365.244 169.24 369.111 163.73C372.978 158.22 375.052 151.652 375.052 144.92H394.801Z"/>
</mask>
<path d="M394.801 144.92C394.801 155.712 391.475 166.241 385.276 175.074C379.076 183.908 370.306 190.616 360.157 194.285L353.442 175.714C359.772 173.425 365.244 169.24 369.111 163.73C372.978 158.22 375.052 151.652 375.052 144.92H394.801Z" stroke="#3A4CFA" stroke-width="39.68" mask="url(#path-12-inside-1_306_341)"/>
<mask id="path-13-inside-2_306_341" fill="white">
<path d="M359.932 95.474C370.138 99.1119 378.968 105.819 385.211 114.675C391.454 123.53 394.804 134.101 394.801 144.936L375.052 144.93C375.054 138.171 372.965 131.577 369.071 126.053C365.176 120.529 359.668 116.345 353.302 114.076L359.932 95.474Z"/>
</mask>
<path d="M359.932 95.474C370.138 99.1119 378.968 105.819 385.211 114.675C391.454 123.53 394.804 134.101 394.801 144.936L375.052 144.93C375.054 138.171 372.965 131.577 369.071 126.053C365.176 120.529 359.668 116.345 353.302 114.076L359.932 95.474Z" stroke="#121666" stroke-width="39.68" mask="url(#path-13-inside-2_306_341)"/>
<path d="M264.591 66H267.931C268.621 66 269.161 65.83 269.561 65.48C269.961 65.13 270.161 64.67 270.161 64.11C270.161 63.34 269.741 62.71 268.941 62.42C269.511 62.11 269.881 61.52 269.881 60.83C269.881 60.3 269.691 59.86 269.301 59.52C268.911 59.17 268.391 59 267.741 59H264.591V66ZM265.741 62V60.07H267.711C268.341 60.07 268.751 60.46 268.751 61.02C268.751 61.58 268.321 62 267.681 62H265.741ZM265.741 64.92V62.97H267.831C268.501 62.97 268.951 63.33 268.951 63.94C268.951 64.53 268.511 64.92 267.861 64.92H265.741Z" fill="#3A4CFA"/>
<path d="M273.167 66.09C273.857 66.09 274.417 65.82 274.827 65.29V66H275.977V60.7H274.827V63.42C274.827 64.34 274.237 65.01 273.397 65.01C272.677 65.01 272.097 64.47 272.097 63.63V60.7H270.947V63.94C270.947 64.59 271.167 65.11 271.597 65.5C272.037 65.89 272.557 66.09 273.167 66.09Z" fill="#3A4CFA"/>
<path d="M279.56 66.09C280.26 66.09 280.83 65.82 281.27 65.29V66H282.42V59H281.27V61.41C280.84 60.88 280.27 60.61 279.56 60.61C278.83 60.61 278.21 60.88 277.69 61.41C277.18 61.94 276.92 62.58 276.92 63.35C276.92 64.09 277.18 64.73 277.7 65.28C278.22 65.82 278.84 66.09 279.56 66.09ZM279.66 65.04C279.19 65.04 278.8 64.87 278.48 64.54C278.16 64.21 278 63.81 278 63.35C278 62.88 278.16 62.48 278.48 62.15C278.8 61.82 279.19 61.65 279.66 61.65C280.12 61.65 280.51 61.82 280.84 62.16C281.17 62.49 281.34 62.89 281.34 63.35C281.34 63.81 281.17 64.21 280.84 64.54C280.51 64.87 280.12 65.04 279.66 65.04Z" fill="#3A4CFA"/>
<path d="M286.226 68.29C286.976 68.29 287.596 68.05 288.096 67.57C288.606 67.09 288.856 66.43 288.856 65.59V60.7H287.706V61.39C287.276 60.87 286.706 60.61 285.996 60.61C285.246 60.6 284.626 60.85 284.116 61.36C283.606 61.87 283.356 62.5 283.356 63.27C283.356 64.02 283.606 64.66 284.106 65.17C284.606 65.68 285.236 65.93 285.996 65.93C286.726 65.93 287.296 65.68 287.706 65.18V65.62C287.696 66.7 287.086 67.25 286.216 67.25C285.586 67.25 284.986 66.95 284.756 66.3H283.606C283.756 66.95 284.076 67.45 284.566 67.78C285.056 68.12 285.616 68.29 286.226 68.29ZM286.096 64.9C285.646 64.9 285.256 64.74 284.926 64.43C284.596 64.12 284.436 63.73 284.436 63.27C284.436 62.81 284.596 62.42 284.916 62.11C285.246 61.79 285.636 61.63 286.096 61.63C286.566 61.63 286.956 61.79 287.286 62.11C287.616 62.43 287.776 62.82 287.776 63.27C287.776 63.72 287.606 64.11 287.276 64.43C286.946 64.74 286.556 64.9 286.096 64.9Z" fill="#3A4CFA"/>
<path d="M292.472 66.08C292.982 66.08 293.472 65.95 293.942 65.7C294.412 65.44 294.752 65.1 294.962 64.67L293.942 64.4C293.572 64.83 293.082 65.05 292.472 65.05C291.672 65.05 291.022 64.56 290.892 63.77H295.152C295.212 63.48 295.212 63.18 295.142 62.87C295.032 62.22 294.722 61.69 294.212 61.26C293.712 60.83 293.132 60.61 292.472 60.61C291.722 60.61 291.082 60.88 290.552 61.41C290.022 61.94 289.752 62.58 289.752 63.34C289.752 64.09 290.012 64.74 290.542 65.28C291.072 65.81 291.712 66.08 292.472 66.08ZM290.892 62.88C291.022 62.19 291.652 61.63 292.462 61.63C293.272 61.63 293.892 62.17 294.022 62.88H290.892Z" fill="#3A4CFA"/>
<path d="M299.449 65.96V64.85C298.319 65.2 297.779 64.93 297.779 64.28L297.789 61.69H299.409V60.7H297.789V59.39H296.659L296.649 60.7H295.649V61.69H296.649L296.639 64.29C296.639 65.04 296.899 65.57 297.429 65.86C297.959 66.15 298.629 66.19 299.449 65.96Z" fill="#3A4CFA"/>
<path d="M303.076 68.1H304.226V65.28C304.646 65.81 305.216 66.08 305.936 66.08C306.666 66.08 307.286 65.82 307.796 65.29C308.316 64.76 308.576 64.11 308.576 63.34C308.576 62.6 308.316 61.96 307.796 61.42C307.276 60.88 306.656 60.61 305.936 60.61C305.226 60.61 304.656 60.87 304.226 61.39V60.7H303.076V68.1ZM305.826 65.04C305.366 65.04 304.966 64.87 304.636 64.54C304.306 64.2 304.146 63.8 304.146 63.34C304.146 62.89 304.306 62.49 304.636 62.16C304.966 61.83 305.366 61.66 305.826 61.66C306.296 61.66 306.686 61.83 307.006 62.16C307.336 62.49 307.496 62.88 307.496 63.34C307.496 63.81 307.336 64.21 307.006 64.54C306.686 64.87 306.296 65.04 305.826 65.04Z" fill="#3A4CFA"/>
<path d="M311.246 66.08C312.126 66.08 312.756 65.63 313.066 65.2V66H314.156V62.33C314.156 61.82 313.916 61.41 313.446 61.09C312.976 60.77 312.416 60.61 311.756 60.61C311.106 60.61 310.546 60.76 310.096 61.07C309.646 61.38 309.416 61.79 309.406 62.32L310.506 62.3C310.626 61.82 311.046 61.58 311.776 61.58C312.536 61.58 313.066 61.88 313.066 62.47V62.79H311.456C310.046 62.79 309.256 63.37 309.266 64.45C309.266 65.72 310.396 66.08 311.246 66.08ZM311.336 65.13C310.866 65.13 310.456 64.93 310.416 64.48C310.366 63.99 310.786 63.62 311.656 63.62H313.066C313.066 64.03 312.886 64.38 312.526 64.68C312.176 64.98 311.776 65.13 311.336 65.13Z" fill="#3A4CFA"/>
<path d="M318.599 65.96V64.85C317.469 65.2 316.929 64.93 316.929 64.28L316.939 61.69H318.559V60.7H316.939V59.39H315.809L315.799 60.7H314.799V61.69H315.799L315.789 64.29C315.789 65.04 316.049 65.57 316.579 65.86C317.109 66.15 317.779 66.19 318.599 65.96Z" fill="#3A4CFA"/>
<path d="M320.672 59.83C320.962 59.54 320.962 59.06 320.672 58.78C320.382 58.49 319.902 58.49 319.612 58.78C319.332 59.06 319.332 59.54 319.612 59.83C319.902 60.11 320.382 60.11 320.672 59.83ZM319.552 66H320.702V60.7H319.552V66Z" fill="#3A4CFA"/>
<path d="M324.406 66.08C324.916 66.08 325.406 65.95 325.876 65.7C326.346 65.44 326.686 65.1 326.896 64.67L325.876 64.4C325.506 64.83 325.016 65.05 324.406 65.05C323.606 65.05 322.956 64.56 322.826 63.77H327.086C327.146 63.48 327.146 63.18 327.076 62.87C326.966 62.22 326.656 61.69 326.146 61.26C325.646 60.83 325.066 60.61 324.406 60.61C323.656 60.61 323.016 60.88 322.486 61.41C321.956 61.94 321.686 62.58 321.686 63.34C321.686 64.09 321.946 64.74 322.476 65.28C323.006 65.81 323.646 66.08 324.406 66.08ZM322.826 62.88C322.956 62.19 323.586 61.63 324.396 61.63C325.206 61.63 325.826 62.17 325.956 62.88H322.826Z" fill="#3A4CFA"/>
<path d="M327.92 66H329.07V63.27C329.07 62.82 329.2 62.44 329.47 62.14C329.74 61.83 330.08 61.68 330.5 61.68C331.22 61.68 331.79 62.21 331.79 63.06V66H332.94V62.75C332.94 62.1 332.72 61.59 332.28 61.2C331.85 60.81 331.33 60.61 330.72 60.61C330.03 60.61 329.48 60.87 329.07 61.4V60.7H327.92V66Z" fill="#3A4CFA"/>
<path d="M337.31 65.96V64.85C336.18 65.2 335.64 64.93 335.64 64.28L335.65 61.69H337.27V60.7H335.65V59.39H334.52L334.51 60.7H333.51V61.69H334.51L334.5 64.29C334.5 65.04 334.76 65.57 335.29 65.86C335.82 66.15 336.49 66.19 337.31 65.96Z" fill="#3A4CFA"/>
<g filter="url(#filter2_d_306_341)">
<rect x="60.0015" y="42" width="180.213" height="180.213" rx="13.2267" fill="white"/>
</g>
<path d="M76.5345 166C76.5345 146.487 84.2859 127.774 98.0836 113.976C111.881 100.178 130.595 92.4268 150.108 92.4268C169.621 92.4268 188.334 100.178 202.132 113.976C215.93 127.774 223.681 146.487 223.681 166L198.645 166C198.645 153.127 193.531 140.782 184.429 131.679C175.326 122.577 162.981 117.463 150.108 117.463C137.235 117.463 124.889 122.577 115.787 131.679C106.684 140.782 101.571 153.127 101.571 166H76.5345Z" fill="#EEFAFF"/>
<path d="M76.5345 166C76.5345 152.097 80.474 138.478 87.8965 126.722C95.319 114.966 105.921 105.553 118.473 99.5751C131.026 93.597 145.015 91.298 158.821 92.9445C172.626 94.5909 185.682 100.115 196.477 108.878L180.698 128.316C173.577 122.535 164.963 118.891 155.856 117.804C146.748 116.718 137.519 118.235 129.238 122.179C120.957 126.123 113.963 132.332 109.066 140.088C104.17 147.843 101.571 156.828 101.571 166H76.5345Z" fill="#3A4CFA"/>
<path d="M76.5345 166C76.5345 154.446 79.2555 143.055 84.4771 132.749C89.6987 122.443 97.2741 113.511 106.59 106.677L121.399 126.864C115.253 131.372 110.255 137.265 106.81 144.064C103.366 150.863 101.571 158.378 101.571 166H76.5345Z" fill="#121666"/>
<path d="M74.6013 66H75.7913V60.11H77.9713V59H72.3413V60.11H74.6013V66Z" fill="#3A4CFA"/>
<path d="M80.4138 66.08C80.9238 66.08 81.4138 65.95 81.8838 65.7C82.3538 65.44 82.6938 65.1 82.9038 64.67L81.8838 64.4C81.5138 64.83 81.0238 65.05 80.4138 65.05C79.6138 65.05 78.9638 64.56 78.8338 63.77H83.0938C83.1538 63.48 83.1538 63.18 83.0838 62.87C82.9738 62.22 82.6638 61.69 82.1538 61.26C81.6538 60.83 81.0738 60.61 80.4138 60.61C79.6638 60.61 79.0238 60.88 78.4938 61.41C77.9638 61.94 77.6938 62.58 77.6938 63.34C77.6938 64.09 77.9538 64.74 78.4838 65.28C79.0138 65.81 79.6538 66.08 80.4138 66.08ZM78.8338 62.88C78.9638 62.19 79.5938 61.63 80.4038 61.63C81.2138 61.63 81.8338 62.17 81.9638 62.88H78.8338Z" fill="#3A4CFA"/>
<path d="M83.9678 66H85.1178V63.16C85.1178 62.31 85.5478 61.66 86.3578 61.66C87.0378 61.66 87.4278 62.18 87.4278 63.02V66H88.5778V63C88.6178 62.23 89.0478 61.66 89.8078 61.66C90.4878 61.66 90.8778 62.17 90.8778 63.02V66H92.0278V62.75C92.0278 62.09 91.8278 61.57 91.4378 61.19C91.0478 60.8 90.5778 60.61 90.0378 60.61C89.3278 60.61 88.6478 60.98 88.2478 61.61C87.8978 60.97 87.2778 60.61 86.5878 60.61C85.9778 60.61 85.4878 60.87 85.1178 61.38V60.7H83.9678V66Z" fill="#3A4CFA"/>
<path d="M93.0196 68.1H94.1696V65.28C94.5896 65.81 95.1596 66.08 95.8796 66.08C96.6096 66.08 97.2296 65.82 97.7396 65.29C98.2596 64.76 98.5196 64.11 98.5196 63.34C98.5196 62.6 98.2596 61.96 97.7396 61.42C97.2196 60.88 96.5996 60.61 95.8796 60.61C95.1696 60.61 94.5996 60.87 94.1696 61.39V60.7H93.0196V68.1ZM95.7696 65.04C95.3096 65.04 94.9096 64.87 94.5796 64.54C94.2496 64.2 94.0896 63.8 94.0896 63.34C94.0896 62.89 94.2496 62.49 94.5796 62.16C94.9096 61.83 95.3096 61.66 95.7696 61.66C96.2396 61.66 96.6296 61.83 96.9496 62.16C97.2796 62.49 97.4396 62.88 97.4396 63.34C97.4396 63.81 97.2796 64.21 96.9496 64.54C96.6296 64.87 96.2396 65.04 95.7696 65.04Z" fill="#3A4CFA"/>
<path d="M101.517 66.08C102.107 66.08 102.617 65.95 103.027 65.69C103.437 65.42 103.647 65.03 103.647 64.5C103.647 63.71 103.137 63.19 101.887 62.9C101.737 62.86 101.457 62.81 101.327 62.78C101.207 62.74 100.997 62.7 100.887 62.66C100.587 62.53 100.387 62.46 100.387 62.2C100.387 61.84 100.807 61.6 101.377 61.6C102.007 61.6 102.687 61.82 103.417 62.25V61.19C102.717 60.8 102.037 60.61 101.377 60.61C100.767 60.61 100.257 60.75 99.8472 61.04C99.4372 61.32 99.2272 61.71 99.2272 62.2C99.2272 63.03 99.8272 63.46 101.137 63.74C102.127 63.95 102.497 64.14 102.497 64.49C102.497 64.85 102.087 65.08 101.517 65.08C101.117 65.08 100.717 64.99 100.307 64.81C99.8972 64.63 99.5672 64.43 99.3172 64.22V65.41C100.067 65.86 100.797 66.08 101.517 66.08Z" fill="#3A4CFA"/>
<path d="M109.769 66.08C110.279 66.08 110.769 65.95 111.239 65.7C111.709 65.44 112.049 65.1 112.259 64.67L111.239 64.4C110.869 64.83 110.379 65.05 109.769 65.05C108.969 65.05 108.319 64.56 108.189 63.77H112.449C112.509 63.48 112.509 63.18 112.439 62.87C112.329 62.22 112.019 61.69 111.509 61.26C111.009 60.83 110.429 60.61 109.769 60.61C109.019 60.61 108.379 60.88 107.849 61.41C107.319 61.94 107.049 62.58 107.049 63.34C107.049 64.09 107.309 64.74 107.839 65.28C108.369 65.81 109.009 66.08 109.769 66.08ZM108.189 62.88C108.319 62.19 108.949 61.63 109.759 61.63C110.569 61.63 111.189 62.17 111.319 62.88H108.189Z" fill="#3A4CFA"/>
<path d="M115.482 66.08C116.072 66.08 116.582 65.95 116.992 65.69C117.402 65.42 117.612 65.03 117.612 64.5C117.612 63.71 117.102 63.19 115.852 62.9C115.702 62.86 115.422 62.81 115.292 62.78C115.172 62.74 114.962 62.7 114.852 62.66C114.552 62.53 114.352 62.46 114.352 62.2C114.352 61.84 114.772 61.6 115.342 61.6C115.972 61.6 116.652 61.82 117.382 62.25V61.19C116.682 60.8 116.002 60.61 115.342 60.61C114.732 60.61 114.222 60.75 113.812 61.04C113.402 61.32 113.192 61.71 113.192 62.2C113.192 63.03 113.792 63.46 115.102 63.74C116.092 63.95 116.462 64.14 116.462 64.49C116.462 64.85 116.052 65.08 115.482 65.08C115.082 65.08 114.682 64.99 114.272 64.81C113.862 64.63 113.532 64.43 113.282 64.22V65.41C114.032 65.86 114.762 66.08 115.482 66.08Z" fill="#3A4CFA"/>
<path d="M121.882 65.96V64.85C120.752 65.2 120.212 64.93 120.212 64.28L120.222 61.69H121.842V60.7H120.222V59.39H119.092L119.082 60.7H118.082V61.69H119.082L119.072 64.29C119.072 65.04 119.332 65.57 119.862 65.86C120.392 66.15 121.062 66.19 121.882 65.96Z" fill="#3A4CFA"/>
<path d="M123.956 59.83C124.246 59.54 124.246 59.06 123.956 58.78C123.666 58.49 123.186 58.49 122.896 58.78C122.616 59.06 122.616 59.54 122.896 59.83C123.186 60.11 123.666 60.11 123.956 59.83ZM122.836 66H123.986V60.7H122.836V66Z" fill="#3A4CFA"/>
<path d="M125.159 66H126.309V63.16C126.309 62.31 126.739 61.66 127.549 61.66C128.229 61.66 128.619 62.18 128.619 63.02V66H129.769V63C129.809 62.23 130.239 61.66 130.999 61.66C131.679 61.66 132.069 62.17 132.069 63.02V66H133.219V62.75C133.219 62.09 133.019 61.57 132.629 61.19C132.239 60.8 131.769 60.61 131.229 60.61C130.519 60.61 129.839 60.98 129.439 61.61C129.089 60.97 128.469 60.61 127.779 60.61C127.169 60.61 126.679 60.87 126.309 61.38V60.7H125.159V66Z" fill="#3A4CFA"/>
<path d="M135.932 59.97H136.952L138.272 58.58H136.902L135.932 59.97ZM136.732 66.08C137.242 66.08 137.732 65.95 138.202 65.7C138.672 65.44 139.012 65.1 139.222 64.67L138.202 64.4C137.832 64.83 137.342 65.05 136.732 65.05C135.932 65.05 135.282 64.56 135.152 63.77H139.412C139.472 63.48 139.472 63.18 139.402 62.87C139.292 62.22 138.982 61.69 138.472 61.26C137.972 60.83 137.392 60.61 136.732 60.61C135.982 60.61 135.342 60.88 134.812 61.41C134.282 61.94 134.012 62.58 134.012 63.34C134.012 64.09 134.272 64.74 134.802 65.28C135.332 65.81 135.972 66.08 136.732 66.08ZM135.152 62.88C135.282 62.19 135.912 61.63 136.722 61.63C137.532 61.63 138.152 62.17 138.282 62.88H135.152Z" fill="#3A4CFA"/>
<path d="M72.3557 76H75.1277L75.1337 75.34H73.4417L74.5877 74.134C74.9417 73.75 75.1037 73.444 75.1037 73.06C75.1037 72.646 74.9657 72.322 74.6897 72.094C74.4197 71.86 74.0897 71.746 73.7117 71.746C73.3217 71.746 72.9857 71.866 72.7097 72.106C72.4397 72.34 72.2957 72.67 72.2837 73.096H72.9737C72.9977 72.694 73.2857 72.394 73.7117 72.394C74.1257 72.394 74.4257 72.694 74.4077 73.078C74.4017 73.264 74.2937 73.48 74.0717 73.714L72.3557 75.526V76Z" fill="#CCDAEF"/>
<path d="M76.3777 73.582C76.5457 73.414 76.5457 73.126 76.3777 72.958C76.2097 72.784 75.9217 72.784 75.7477 72.958C75.5797 73.126 75.5797 73.414 75.7477 73.582C75.9217 73.744 76.2097 73.744 76.3777 73.582ZM76.3777 75.916C76.5457 75.742 76.5457 75.454 76.3777 75.286C76.2097 75.118 75.9217 75.118 75.7477 75.286C75.5797 75.454 75.5797 75.742 75.7477 75.916C75.9217 76.084 76.2097 76.084 76.3777 75.916Z" fill="#CCDAEF"/>
<path d="M78.6268 76.012C79.1488 76.012 79.5568 75.814 79.8628 75.424C80.1688 75.034 80.3248 74.512 80.3248 73.864C80.3248 73.21 80.1748 72.688 79.8688 72.298C79.5628 71.908 79.1488 71.71 78.6268 71.71C78.1048 71.71 77.6908 71.908 77.3848 72.298C77.0788 72.688 76.9288 73.216 76.9288 73.87C76.9288 74.524 77.0788 75.046 77.3788 75.436C77.6848 75.82 78.0988 76.012 78.6268 76.012ZM78.6268 75.34C78.3208 75.34 78.0808 75.208 77.8948 74.938C77.7088 74.668 77.6188 74.314 77.6188 73.87C77.6188 73.432 77.7088 73.072 77.8888 72.796C78.0688 72.514 78.3148 72.376 78.6268 72.376C78.9328 72.376 79.1728 72.514 79.3588 72.79C79.5448 73.066 79.6348 73.426 79.6348 73.864C79.6348 74.302 79.5448 74.656 79.3648 74.932C79.1848 75.202 78.9388 75.34 78.6268 75.34Z" fill="#CCDAEF"/>
<path d="M82.4705 76.012C82.9925 76.012 83.4005 75.814 83.7065 75.424C84.0125 75.034 84.1685 74.512 84.1685 73.864C84.1685 73.21 84.0185 72.688 83.7125 72.298C83.4065 71.908 82.9925 71.71 82.4705 71.71C81.9485 71.71 81.5345 71.908 81.2285 72.298C80.9225 72.688 80.7725 73.216 80.7725 73.87C80.7725 74.524 80.9225 75.046 81.2225 75.436C81.5285 75.82 81.9425 76.012 82.4705 76.012ZM82.4705 75.34C82.1645 75.34 81.9245 75.208 81.7385 74.938C81.5525 74.668 81.4625 74.314 81.4625 73.87C81.4625 73.432 81.5525 73.072 81.7325 72.796C81.9125 72.514 82.1585 72.376 82.4705 72.376C82.7765 72.376 83.0165 72.514 83.2025 72.79C83.3885 73.066 83.4785 73.426 83.4785 73.864C83.4785 74.302 83.3885 74.656 83.2085 74.932C83.0285 75.202 82.7825 75.34 82.4705 75.34Z" fill="#CCDAEF"/>
<path d="M85.3543 73.582C85.5223 73.414 85.5223 73.126 85.3543 72.958C85.1863 72.784 84.8983 72.784 84.7243 72.958C84.5563 73.126 84.5563 73.414 84.7243 73.582C84.8983 73.744 85.1863 73.744 85.3543 73.582ZM85.3543 75.916C85.5223 75.742 85.5223 75.454 85.3543 75.286C85.1863 75.118 84.8983 75.118 84.7243 75.286C84.5563 75.454 84.5563 75.742 84.7243 75.916C84.8983 76.084 85.1863 76.084 85.3543 75.916Z" fill="#CCDAEF"/>
<path d="M87.4353 76.048C87.8253 76.048 88.1673 75.928 88.4613 75.694C88.7553 75.454 88.8993 75.124 88.8993 74.698C88.8993 74.338 88.7793 74.05 88.5453 73.84C88.3113 73.624 88.0173 73.516 87.6513 73.51L88.7973 72.562L88.7913 71.8H86.0373V72.454H87.9453L86.5413 73.6L86.8533 74.002C87.2433 73.9 87.5673 73.924 87.8253 74.068C88.0833 74.206 88.2093 74.41 88.2093 74.68C88.2093 74.878 88.1373 75.052 87.9873 75.19C87.8373 75.328 87.6573 75.394 87.4353 75.394C87.2253 75.394 87.0393 75.328 86.8773 75.196C86.7213 75.064 86.6373 74.896 86.6313 74.698L85.9353 74.704C85.9473 75.082 86.0973 75.4 86.3913 75.658C86.6853 75.916 87.0333 76.048 87.4353 76.048Z" fill="#CCDAEF"/>
<path d="M91.1014 76.012C91.6234 76.012 92.0314 75.814 92.3374 75.424C92.6434 75.034 92.7994 74.512 92.7994 73.864C92.7994 73.21 92.6494 72.688 92.3434 72.298C92.0374 71.908 91.6234 71.71 91.1014 71.71C90.5794 71.71 90.1654 71.908 89.8594 72.298C89.5534 72.688 89.4034 73.216 89.4034 73.87C89.4034 74.524 89.5534 75.046 89.8534 75.436C90.1594 75.82 90.5734 76.012 91.1014 76.012ZM91.1014 75.34C90.7954 75.34 90.5554 75.208 90.3694 74.938C90.1834 74.668 90.0934 74.314 90.0934 73.87C90.0934 73.432 90.1834 73.072 90.3634 72.796C90.5434 72.514 90.7894 72.376 91.1014 72.376C91.4074 72.376 91.6474 72.514 91.8334 72.79C92.0194 73.066 92.1094 73.426 92.1094 73.864C92.1094 74.302 92.0194 74.656 91.8394 74.932C91.6594 75.202 91.4134 75.34 91.1014 75.34Z" fill="#CCDAEF"/>
<path d="M81.3496 180H82.0636V178.602L83.1736 178.596C83.5816 178.59 83.9176 178.458 84.1816 178.194C84.4516 177.924 84.5836 177.594 84.5836 177.204C84.5836 176.814 84.4516 176.484 84.1816 176.214C83.9116 175.938 83.5756 175.8 83.1736 175.8H81.3496V180ZM82.0636 177.96V176.448L83.1256 176.442C83.5996 176.442 83.8936 176.754 83.8936 177.18C83.8936 177.612 83.5876 177.954 83.1256 177.954L82.0636 177.96Z" fill="#CCDAEF"/>
<path d="M86.1161 180.048C86.6441 180.048 87.0221 179.778 87.2081 179.52V180H87.8621V177.798C87.8621 177.492 87.7181 177.246 87.4361 177.054C87.1541 176.862 86.8181 176.766 86.4221 176.766C86.0321 176.766 85.6961 176.856 85.4261 177.042C85.1561 177.228 85.0181 177.474 85.0121 177.792L85.6721 177.78C85.7441 177.492 85.9961 177.348 86.4341 177.348C86.8901 177.348 87.2081 177.528 87.2081 177.882V178.074H86.2421C85.3961 178.074 84.9221 178.422 84.9281 179.07C84.9281 179.832 85.6061 180.048 86.1161 180.048ZM86.1701 179.478C85.8881 179.478 85.6421 179.358 85.6181 179.088C85.5881 178.794 85.8401 178.572 86.3621 178.572H87.2081C87.2081 178.818 87.1001 179.028 86.8841 179.208C86.6741 179.388 86.4341 179.478 86.1701 179.478Z" fill="#CCDAEF"/>
<path d="M88.5091 180H89.1991V178.386C89.1991 178.05 89.3191 177.798 89.5651 177.636C89.8111 177.474 90.0991 177.438 90.4231 177.54V176.808C89.8231 176.712 89.3971 176.94 89.1991 177.342V176.82H88.5091V180Z" fill="#CCDAEF"/>
<path d="M92.2363 180.048C92.6863 180.048 93.0703 179.886 93.3883 179.568C93.7063 179.244 93.8683 178.854 93.8683 178.404C93.8683 177.954 93.7063 177.57 93.3883 177.252C93.0703 176.928 92.6863 176.766 92.2363 176.766C91.7863 176.766 91.3963 176.928 91.0783 177.246C90.7603 177.564 90.6043 177.954 90.6043 178.404C90.6043 178.854 90.7603 179.238 91.0783 179.562C91.3963 179.886 91.7863 180.048 92.2363 180.048ZM91.5343 179.118C91.3423 178.92 91.2463 178.68 91.2463 178.404C91.2463 178.128 91.3423 177.894 91.5343 177.696C91.7263 177.498 91.9603 177.396 92.2363 177.396C92.5123 177.396 92.7463 177.498 92.9383 177.696C93.1303 177.894 93.2263 178.128 93.2263 178.404C93.2263 178.68 93.1303 178.92 92.9383 179.118C92.7463 179.316 92.5123 179.412 92.2363 179.412C91.9603 179.412 91.7263 179.316 91.5343 179.118Z" fill="#CCDAEF"/>
<path d="M142.347 135.036C142.773 135.036 143.157 134.922 143.493 134.688C143.835 134.454 144.087 134.142 144.255 133.758L143.565 133.572C143.343 134.058 142.905 134.352 142.347 134.352C141.939 134.352 141.597 134.214 141.327 133.932C141.057 133.65 140.925 133.302 140.925 132.894C140.925 132.48 141.063 132.132 141.333 131.85C141.603 131.568 141.945 131.424 142.347 131.424C142.905 131.43 143.343 131.742 143.577 132.228L144.261 132.03C144.087 131.64 143.835 131.334 143.493 131.1C143.151 130.866 142.773 130.746 142.347 130.746C141.753 130.746 141.249 130.956 140.835 131.376C140.421 131.79 140.211 132.3 140.211 132.894C140.211 133.482 140.421 133.986 140.835 134.406C141.249 134.826 141.753 135.036 142.347 135.036Z" fill="#CCDAEF"/>
<path d="M145.848 135.048C146.376 135.048 146.754 134.778 146.94 134.52V135H147.594V132.798C147.594 132.492 147.45 132.246 147.168 132.054C146.886 131.862 146.55 131.766 146.154 131.766C145.764 131.766 145.428 131.856 145.158 132.042C144.888 132.228 144.75 132.474 144.744 132.792L145.404 132.78C145.476 132.492 145.728 132.348 146.166 132.348C146.622 132.348 146.94 132.528 146.94 132.882V133.074H145.974C145.128 133.074 144.654 133.422 144.66 134.07C144.66 134.832 145.338 135.048 145.848 135.048ZM145.902 134.478C145.62 134.478 145.374 134.358 145.35 134.088C145.32 133.794 145.572 133.572 146.094 133.572H146.94C146.94 133.818 146.832 134.028 146.616 134.208C146.406 134.388 146.166 134.478 145.902 134.478Z" fill="#CCDAEF"/>
<path d="M148.241 135H148.931V133.386C148.931 133.05 149.051 132.798 149.297 132.636C149.543 132.474 149.831 132.438 150.155 132.54V131.808C149.555 131.712 149.129 131.94 148.931 132.342V131.82H148.241V135Z" fill="#CCDAEF"/>
<path d="M151.933 135.054C152.353 135.054 152.695 134.892 152.959 134.574V135H153.649V130.8H152.959V132.246C152.701 131.928 152.359 131.766 151.933 131.766C151.495 131.766 151.123 131.928 150.811 132.246C150.505 132.564 150.349 132.948 150.349 133.41C150.349 133.854 150.505 134.238 150.817 134.568C151.129 134.892 151.501 135.054 151.933 135.054ZM151.993 134.424C151.711 134.424 151.477 134.322 151.285 134.124C151.093 133.926 150.997 133.686 150.997 133.41C150.997 133.128 151.093 132.888 151.285 132.69C151.477 132.492 151.711 132.39 151.993 132.39C152.269 132.39 152.503 132.492 152.701 132.696C152.899 132.894 153.001 133.134 153.001 133.41C153.001 133.686 152.899 133.926 152.701 134.124C152.503 134.322 152.269 134.424 151.993 134.424Z" fill="#CCDAEF"/>
<path d="M155.014 131.298C155.188 131.124 155.188 130.836 155.014 130.668C154.84 130.494 154.552 130.494 154.378 130.668C154.21 130.836 154.21 131.124 154.378 131.298C154.552 131.466 154.84 131.466 155.014 131.298ZM154.342 135H155.032V131.82H154.342V135Z" fill="#CCDAEF"/>
<path d="M157.242 135.048C157.692 135.048 158.076 134.886 158.394 134.568C158.712 134.244 158.874 133.854 158.874 133.404C158.874 132.954 158.712 132.57 158.394 132.252C158.076 131.928 157.692 131.766 157.242 131.766C156.792 131.766 156.402 131.928 156.084 132.246C155.766 132.564 155.61 132.954 155.61 133.404C155.61 133.854 155.766 134.238 156.084 134.562C156.402 134.886 156.792 135.048 157.242 135.048ZM156.54 134.118C156.348 133.92 156.252 133.68 156.252 133.404C156.252 133.128 156.348 132.894 156.54 132.696C156.732 132.498 156.966 132.396 157.242 132.396C157.518 132.396 157.752 132.498 157.944 132.696C158.136 132.894 158.232 133.128 158.232 133.404C158.232 133.68 158.136 133.92 157.944 134.118C157.752 134.316 157.518 134.412 157.242 134.412C156.966 134.412 156.732 134.316 156.54 134.118Z" fill="#CCDAEF"/>
<path d="M204.347 175.752C203.753 175.752 203.249 175.962 202.835 176.382C202.421 176.802 202.211 177.306 202.211 177.9C202.211 178.494 202.421 178.998 202.835 179.418C203.249 179.838 203.753 180.048 204.347 180.048C204.941 180.048 205.445 179.838 205.859 179.418C206.273 178.998 206.483 178.494 206.477 177.9C206.471 177.306 206.261 176.802 205.847 176.382C205.433 175.962 204.935 175.752 204.347 175.752ZM204.347 179.376C203.939 179.376 203.597 179.232 203.327 178.95C203.057 178.662 202.925 178.314 202.925 177.9C202.925 177.486 203.063 177.138 203.333 176.856C203.603 176.568 203.945 176.424 204.347 176.424C204.749 176.424 205.085 176.568 205.355 176.856C205.625 177.144 205.763 177.492 205.763 177.9C205.763 178.314 205.625 178.662 205.355 178.95C205.085 179.232 204.749 179.376 204.347 179.376Z" fill="#CCDAEF"/>
<path d="M207.007 180H207.697V178.386C207.697 178.05 207.817 177.798 208.063 177.636C208.309 177.474 208.597 177.438 208.921 177.54V176.808C208.321 176.712 207.895 176.94 207.697 177.342V176.82H207.007V180Z" fill="#CCDAEF"/>
<path d="M211.551 179.976V179.31C210.873 179.52 210.549 179.358 210.549 178.968L210.555 177.414H211.527V176.82H210.555V176.034H209.877L209.871 176.82H209.271V177.414H209.871L209.865 178.974C209.865 179.424 210.021 179.742 210.339 179.916C210.657 180.09 211.059 180.114 211.551 179.976Z" fill="#CCDAEF"/>
<path d="M212.105 180H212.795V178.362C212.795 178.092 212.873 177.864 213.029 177.684C213.191 177.498 213.395 177.408 213.647 177.408C214.085 177.408 214.427 177.726 214.427 178.236V180H215.117V178.05C215.117 177.66 214.985 177.354 214.721 177.12C214.463 176.886 214.151 176.766 213.785 176.766C213.371 176.766 213.041 176.922 212.795 177.24V175.8H212.105V180Z" fill="#CCDAEF"/>
<path d="M217.244 180.048C217.694 180.048 218.078 179.886 218.396 179.568C218.714 179.244 218.876 178.854 218.876 178.404C218.876 177.954 218.714 177.57 218.396 177.252C218.078 176.928 217.694 176.766 217.244 176.766C216.794 176.766 216.404 176.928 216.086 177.246C215.768 177.564 215.612 177.954 215.612 178.404C215.612 178.854 215.768 179.238 216.086 179.562C216.404 179.886 216.794 180.048 217.244 180.048ZM216.542 179.118C216.35 178.92 216.254 178.68 216.254 178.404C216.254 178.128 216.35 177.894 216.542 177.696C216.734 177.498 216.968 177.396 217.244 177.396C217.52 177.396 217.754 177.498 217.946 177.696C218.138 177.894 218.234 178.128 218.234 178.404C218.234 178.68 218.138 178.92 217.946 179.118C217.754 179.316 217.52 179.412 217.244 179.412C216.968 179.412 216.734 179.316 216.542 179.118Z" fill="#CCDAEF"/>
<defs>
<filter id="filter0_d_306_341" x="43.4061" y="219.957" width="405.191" height="213.404" filterUnits="userSpaceOnUse" color-interpolation-filters="sRGB">
<feFlood flood-opacity="0" result="BackgroundImageFix"/>
<feColorMatrix in="SourceAlpha" type="matrix" values="0 0 0 0 0 0 0 0 0 0 0 0 0 0 0 0 0 0 127 0" result="hardAlpha"/>
<feOffset dy="2.7659"/>
<feGaussianBlur stdDeviation="8.2977"/>
<feComposite in2="hardAlpha" operator="out"/>
<feColorMatrix type="matrix" values="0 0 0 0 0.0705882 0 0 0 0 0.0862745 0 0 0 0 0.4 0 0 0 0.06 0"/>
<feBlend mode="normal" in2="BackgroundImageFix" result="effect1_dropShadow_306_341"/>
<feBlend mode="normal" in="SourceGraphic" in2="effect1_dropShadow_306_341" result="shape"/>
</filter>
<filter id="filter1_d_306_341" x="235.191" y="28.1705" width="213.404" height="213.404" filterUnits="userSpaceOnUse" color-interpolation-filters="sRGB">
<feFlood flood-opacity="0" result="BackgroundImageFix"/>
<feColorMatrix in="SourceAlpha" type="matrix" values="0 0 0 0 0 0 0 0 0 0 0 0 0 0 0 0 0 0 127 0" result="hardAlpha"/>
<feOffset dy="2.7659"/>
<feGaussianBlur stdDeviation="8.2977"/>
<feComposite in2="hardAlpha" operator="out"/>
<feColorMatrix type="matrix" values="0 0 0 0 0.0705882 0 0 0 0 0.0862745 0 0 0 0 0.4 0 0 0 0.06 0"/>
<feBlend mode="normal" in2="BackgroundImageFix" result="effect1_dropShadow_306_341"/>
<feBlend mode="normal" in="SourceGraphic" in2="effect1_dropShadow_306_341" result="shape"/>
</filter>
<filter id="filter2_d_306_341" x="43.4061" y="28.1705" width="213.404" height="213.404" filterUnits="userSpaceOnUse" color-interpolation-filters="sRGB">
<feFlood flood-opacity="0" result="BackgroundImageFix"/>
<feColorMatrix in="SourceAlpha" type="matrix" values="0 0 0 0 0 0 0 0 0 0 0 0 0 0 0 0 0 0 127 0" result="hardAlpha"/>
<feOffset dy="2.7659"/>
<feGaussianBlur stdDeviation="8.2977"/>
<feComposite in2="hardAlpha" operator="out"/>
<feColorMatrix type="matrix" values="0 0 0 0 0.0705882 0 0 0 0 0.0862745 0 0 0 0 0.4 0 0 0 0.06 0"/>
<feBlend mode="normal" in2="BackgroundImageFix" result="effect1_dropShadow_306_341"/>
<feBlend mode="normal" in="SourceGraphic" in2="effect1_dropShadow_306_341" result="shape"/>
</filter>
</defs>
</svg>
