<svg width="585" height="194" viewBox="0 0 585 194" fill="none" xmlns="http://www.w3.org/2000/svg">
<path d="M438.159 32.6092C438.636 35.8168 440.104 37.909 441.378 39.1697L441.473 39.2619C445.085 42.7265 450.075 42.7762 450.631 42.7709L473.826 42.8896L491.841 42.8896L492 13.153C492.004 12.3873 491.951 11.6222 491.841 10.8639C491.363 7.64577 489.887 5.54467 488.588 4.28045L488.522 4.21838C484.914 0.755516 479.926 0.707641 479.369 0.714734L456.174 0.595951L438.159 0.595952L438 30.3326C437.994 31.0942 438.047 31.8553 438.159 32.6092Z" fill="#FFFDB3"/>
<path d="M114.951 131.572C117.15 131.259 118.585 130.293 119.449 129.455L119.513 129.393C121.888 127.017 121.922 123.735 121.919 123.369L122 108.113L122 96.263L101.61 96.1589C101.085 96.1559 100.56 96.1907 100.041 96.263C97.8339 96.5778 96.3932 97.5485 95.5264 98.4031L95.4838 98.4462C93.1094 100.82 93.0766 104.1 93.0814 104.467L93 119.723L93 131.572L113.39 131.676C113.912 131.68 114.434 131.646 114.951 131.572Z" fill="#C6F8EA"/>
<path d="M281.446 96.4455C275.379 97.3052 271.421 99.9533 269.036 102.25L268.862 102.421C262.309 108.935 262.215 117.932 262.225 118.936L262 160.761V193.247L318.248 193.533C319.696 193.541 321.143 193.446 322.578 193.247C328.665 192.384 332.639 189.723 335.031 187.38L335.148 187.262C341.698 180.755 341.789 171.761 341.775 170.756L342 128.932V96.4455L285.752 96.16C284.311 96.1491 282.872 96.2446 281.446 96.4455Z" fill="#EEFAFF"/>
</svg>
