<svg width="1078" height="411" viewBox="0 0 1078 411" fill="none" xmlns="http://www.w3.org/2000/svg">
<g clip-path="url(#clip0_313_13)">
<path fill-rule="evenodd" clip-rule="evenodd" d="M1107.09 212.349C1107.01 212.349 1106.93 212.349 1106.84 212.349L1020 212.349L1020 119.087C1020 96.4235 1038.59 78.0512 1061.53 78.0512L1062.91 78.0512C1062.99 78.0508 1063.07 78.0505 1063.15 78.0505H1150V171.313C1150 193.976 1131.4 212.349 1108.46 212.349H1107.09Z" fill="#C6F8EA"/>
<path d="M209.083 105.899C206.471 123.727 198.423 135.364 191.439 142.343L190.926 142.85C171.138 162.119 143.788 162.391 140.736 162.364L13.6564 163.016L-85.0833 163.016L-85.9999 -2.33543C-86.0064 -6.58139 -85.7001 -10.822 -85.0833 -15.0239C-82.462 -32.915 -74.3781 -44.5887 -67.2565 -51.6309L-66.8991 -51.9752C-47.1291 -71.2349 -19.7977 -71.4977 -16.7456 -71.4614L110.343 -72.1231L209.083 -72.1231L209.999 93.2285C210.015 97.4688 209.709 101.704 209.083 105.899V105.899Z" stroke="#FFFDB3" stroke-width="2" stroke-miterlimit="10"/>
</g>
<defs>
<clipPath id="clip0_313_13">
<rect width="1078" height="411" fill="white"/>
</clipPath>
</defs>
</svg>
