<svg width="375" height="346" viewBox="0 0 375 346" fill="none" xmlns="http://www.w3.org/2000/svg">
<g clip-path="url(#clip0_313_19)">
<path d="M488.083 464.837C485.471 482.664 477.423 494.302 470.439 501.281L469.926 501.788C450.138 521.057 422.788 521.329 419.736 521.302L292.656 521.954L193.917 521.954L193 356.602C192.994 352.356 193.3 348.116 193.917 343.914C196.538 326.023 204.622 314.349 211.743 307.307L212.101 306.963C231.871 287.703 259.202 287.44 262.254 287.476L389.343 286.815L488.083 286.815L488.999 452.166C489.015 456.407 488.709 460.642 488.083 464.837V464.837Z" stroke="#FFFDB3" stroke-width="2" stroke-miterlimit="10"/>
<path fill-rule="evenodd" clip-rule="evenodd" d="M450.15 -7.17388C450.151 -7.01496 450.152 -6.85582 450.152 -6.69647L450.152 80.1489L356.89 80.1489C334.226 80.1489 315.854 61.5532 315.854 38.6141L315.854 37.4712C315.852 37.3129 315.852 37.1544 315.852 36.9957L315.852 -49.8497L409.114 -49.8497C431.777 -49.8497 450.15 -31.2539 450.15 -8.3149L450.15 -7.17388Z" fill="#C6F8EA"/>
</g>
<defs>
<clipPath id="clip0_313_19">
<rect width="375" height="346" fill="white"/>
</clipPath>
</defs>
</svg>
