<svg width="300" height="300" viewBox="0 0 300 300" fill="none" xmlns="http://www.w3.org/2000/svg">
<path fill-rule="evenodd" clip-rule="evenodd" d="M109.692 225.286C144.629 225.286 172.95 196.965 172.95 162.028C172.95 127.092 144.629 98.7709 109.692 98.7709C74.7563 98.7709 46.435 127.092 46.435 162.028C46.435 196.965 74.7563 225.286 109.692 225.286ZM109.692 263.721C165.856 263.721 211.385 218.192 211.385 162.028C211.385 105.865 165.856 60.3359 109.692 60.3359C53.5293 60.3359 8 105.865 8 162.028C8 218.192 53.5293 263.721 109.692 263.721Z" fill="#C6F8EA"/>
<mask id="path-2-inside-1_334_1502" fill="white">
<path d="M211.385 162.028C211.385 182.934 204.942 203.332 192.933 220.445C180.923 237.557 163.932 250.552 144.272 257.661L131.263 221.684C143.527 217.249 154.126 209.143 161.617 198.468C169.108 187.793 173.128 175.069 173.128 162.028H211.385Z"/>
</mask>
<path d="M211.385 162.028C211.385 182.934 204.942 203.332 192.933 220.445C180.923 237.557 163.932 250.552 144.272 257.661L131.263 221.684C143.527 217.249 154.126 209.143 161.617 198.468C169.108 187.793 173.128 175.069 173.128 162.028H211.385Z" stroke="#3A4CFA" stroke-width="76.8699" mask="url(#path-2-inside-1_334_1502)"/>
<mask id="path-3-inside-2_334_1502" fill="white">
<path d="M143.836 66.2392C163.608 73.2867 180.714 86.2797 192.808 103.435C204.902 120.591 211.391 141.069 211.385 162.059L173.128 162.047C173.132 148.954 169.084 136.18 161.54 125.478C153.995 114.777 143.325 106.672 130.991 102.276L143.836 66.2392Z"/>
</mask>
<path d="M143.836 66.2392C163.608 73.2867 180.714 86.2797 192.808 103.435C204.902 120.591 211.391 141.069 211.385 162.059L173.128 162.047C173.132 148.954 169.084 136.18 161.54 125.478C153.995 114.777 143.325 106.672 130.991 102.276L143.836 66.2392Z" stroke="#121666" stroke-width="76.8699" mask="url(#path-3-inside-2_334_1502)"/>
<path fill-rule="evenodd" clip-rule="evenodd" d="M248.693 52.4092C233.777 52.4092 221.686 64.5006 221.686 79.4161C221.686 94.3316 233.777 106.423 248.693 106.423C263.608 106.423 275.7 94.3316 275.7 79.4161C275.7 64.5006 263.608 52.4092 248.693 52.4092ZM248.693 35.9999C224.715 35.9999 205.277 55.438 205.277 79.4161C205.277 103.394 224.715 122.832 248.693 122.832C272.671 122.832 292.109 103.394 292.109 79.4161C292.109 55.438 272.671 35.9999 248.693 35.9999Z" fill="#FFFDB3"/>
<mask id="path-5-inside-3_334_1502" fill="white">
<path d="M205.277 79.4161C205.277 70.4906 208.028 61.7821 213.155 54.4761C218.282 47.1702 225.536 41.622 233.93 38.587L239.484 53.9472C234.248 55.8404 229.723 59.3013 226.524 63.8587C223.326 68.4161 221.61 73.8485 221.61 79.4161L205.277 79.4161Z"/>
</mask>
<path d="M205.277 79.4161C205.277 70.4906 208.028 61.7821 213.155 54.4761C218.282 47.1702 225.536 41.622 233.93 38.587L239.484 53.9472C234.248 55.8404 229.723 59.3013 226.524 63.8587C223.326 68.4161 221.61 73.8485 221.61 79.4161L205.277 79.4161Z" stroke="#3A4CFA" stroke-width="32.8185" mask="url(#path-5-inside-3_334_1502)"/>
<path fill-rule="evenodd" clip-rule="evenodd" d="M239.6 104.927C239.598 104.926 239.597 104.926 239.596 104.925C234.332 103.048 229.778 99.5883 226.558 95.0207C223.337 90.4518 221.609 84.9981 221.61 79.4081L205.277 79.4032C205.277 79.4093 205.277 79.4153 205.277 79.4214C205.278 85.0731 206.381 90.6374 208.492 95.8134C209.726 98.8388 211.305 101.732 213.208 104.432C215.111 107.132 217.306 109.59 219.74 111.769C223.91 115.501 228.786 118.412 234.116 120.312L239.6 104.927Z" fill="#121666"/>
<path fill-rule="evenodd" clip-rule="evenodd" d="M248.767 146.029C239.676 146.029 232.305 153.399 232.305 162.491C232.305 171.582 239.676 178.952 248.767 178.952C257.859 178.952 265.229 171.582 265.229 162.491C265.229 153.399 257.859 146.029 248.767 146.029ZM248.767 136.027C234.152 136.027 222.303 147.875 222.303 162.491C222.303 177.106 234.152 188.954 248.767 188.954C263.383 188.954 275.231 177.106 275.231 162.491C275.231 147.875 263.383 136.027 248.767 136.027Z" fill="#C6F8EA"/>
<mask id="path-8-inside-4_334_1502" fill="white">
<path d="M222.303 162.491C222.303 157.05 223.98 151.742 227.105 147.289C230.23 142.835 234.652 139.454 239.768 137.604L243.154 146.966C239.962 148.12 237.204 150.23 235.255 153.008C233.305 155.786 232.259 159.097 232.259 162.491L222.303 162.491Z"/>
</mask>
<path d="M222.303 162.491C222.303 157.05 223.98 151.742 227.105 147.289C230.23 142.835 234.652 139.454 239.768 137.604L243.154 146.966C239.962 148.12 237.204 150.23 235.255 153.008C233.305 155.786 232.259 159.097 232.259 162.491L222.303 162.491Z" stroke="#3A4CFA" stroke-width="20.0041" mask="url(#path-8-inside-4_334_1502)"/>
<mask id="path-9-inside-5_334_1502" fill="white">
<path d="M239.882 187.418C234.737 185.584 230.285 182.203 227.138 177.738C223.99 173.274 222.302 167.945 222.303 162.483L232.259 162.486C232.258 165.893 233.312 169.217 235.275 172.002C237.238 174.787 240.015 176.896 243.225 178.04L239.882 187.418Z"/>
</mask>
<path d="M239.882 187.418C234.737 185.584 230.285 182.203 227.138 177.738C223.99 173.274 222.302 167.945 222.303 162.483L232.259 162.486C232.258 165.893 233.312 169.217 235.275 172.002C237.238 174.787 240.015 176.896 243.225 178.04L239.882 187.418Z" stroke="#FFFDB3" stroke-width="20.0041" mask="url(#path-9-inside-5_334_1502)"/>
</svg>
